<svg xmlns="http://www.w3.org/2000/svg" viewBox="0 0 532 565.08"><defs><style>.cls-1{isolation:isolate;}.cls-2,.cls-4,.cls-5{fill:#fff;}.cls-3{opacity:0.8;}.cls-3,.cls-4,.cls-5,.cls-6{mix-blend-mode:multiply;}.cls-5{opacity:0.4;}</style></defs><title>yc logo</title><g class="cls-1"><g id="Layer_1" data-name="Layer 1"><path class="cls-2" d="M294.62,532.63V425h97.71v107.6a38.14,38.14,0,0,0,12.29,28.51,42.9,42.9,0,0,0,59.18,0,38.14,38.14,0,0,0,12.29-28.51V425H573.8v107.6q0,55.68-40.9,95.09t-98.69,39.41q-57.79,0-98.69-39.41T294.62,532.63Zm108,269.76,2.85-118.22,60.35.81L463,803.2Z" transform="translate(-273 -246)"/><path class="cls-2" d="M687.45,555.52H805V645H687.45q-18.23,0-31.15,11.25T643.37,683.3q0,15.84,12.93,27.09t31.15,11.24H805v89.45H687.45q-60.83,0-103.88-37.44T540.52,683.3q0-52.9,43.05-90.34T687.45,555.52Z" transform="translate(-273 -246)"/><path class="cls-2" d="M585.24,388.68s8.35-.48,22-6.26A87.85,87.85,0,0,1,622.41,375c8.24-3,14.4-5.09,17.85-6.17,0,0-1.56-1.67,4.7-3.23s22.76,1.56,12,5.28-10.23-.1-25.26,6.76-15.45,7.93-23.8,12.82-15.14,6.17-15.77,5.88S585.24,388.68,585.24,388.68Z" transform="translate(-273 -246)"/><path class="cls-2" d="M585.24,388.68s8.35-.48,22-6.26A87.85,87.85,0,0,1,622.41,375c8.24-3,14.4-5.09,17.85-6.17,0,0-1.56-1.67,4.7-3.23s22.76,1.56,12,5.28-10.23-.1-25.26,6.76-15.45,7.93-23.8,12.82-15.14,6.17-15.77,5.88S585.24,388.68,585.24,388.68Z" transform="translate(-273 -246)"/><path class="cls-2" d="M596.43,386.33a55.4,55.4,0,0,1-11.19,2.35s6.27,7.35,6.89,7.64c.41.19,3.48-.3,7.88-2C599.49,391.31,598.32,387.71,596.43,386.33Z" transform="translate(-273 -246)"/><path class="cls-2" d="M639.53,365c-.34,1.45,0,3.94.73,3.82,1.15-.2,3.34-2,7.83-1.86s12.11,2.54,7.41,4.31a54.49,54.49,0,0,0,10.34-3.33c4.59-2.16,5.11-4.5-3-6.07S640.15,362.35,639.53,365Z" transform="translate(-273 -246)"/><path class="cls-2" d="M630,351.58a40.68,40.68,0,0,1-5.95,7.05,5.73,5.73,0,0,0-.53,3.33c.31,1.76.6,17.67-.83,24.08-.94,4.21-.31,3.43-5,6.95s-14.41,9.3-19.94,10.57L596.2,395s14-4.9,19.32-9a143.9,143.9,0,0,0,2.5-20.85c.1-3.72-.21-6-.73-7s-3.23-2.15,1.88-3.12A63,63,0,0,0,630,351.58Z" transform="translate(-273 -246)"/><path class="cls-2" d="M601.68,392.88c-3.13,1.25-5.48,2.07-5.48,2.07l1.57,8.61a33.32,33.32,0,0,0,6.71-2.59C604.54,398,603.93,394.77,601.68,392.88Z" transform="translate(-273 -246)"/><path class="cls-2" d="M639.74,340.71c2.81,3.1-10.34,12.43-12.53,15.27a7.49,7.49,0,0,1-7,2.84c-1.46-.29-2.71.3-5-1.95s-1.88-3.73,3.24-7.93S636.71,337.38,639.74,340.71Z" transform="translate(-273 -246)"/><path class="cls-2" d="M617.62,354.51a25.72,25.72,0,0,0,5.48-1.68,54.44,54.44,0,0,0,8.58-4.53c1.26-.83,7.27-5,7.9-7.73-3.28-3-16.11,4.22-21.14,8.37-2.82,2.31-4.2,3.8-4.5,5A5.07,5.07,0,0,0,617.62,354.51Z" transform="translate(-273 -246)"/><path class="cls-2" d="M567.6,379s13.57.1,18.48,2.35,10.75,10,12.52,14a24.88,24.88,0,0,1,2,10.18c-.11.78-2.09,1.37-6.37,3.72S574,418.45,558.41,421s-38.52,9.21-44.26-17.91L505,414.53s-2.72-2.59-2.87-5.58l1-10s8.25-6.51,11.7-5.87c0,0,2.39-7.15,18.37-9.11S567.6,379,567.6,379Z" transform="translate(-273 -246)"/><g class="cls-3"><path class="cls-2" d="M598.6,395.34a39,39,0,0,0-9-11.66c5,4.89,7.73,12,8.08,14.3.53,3.33-3.65,7.45-34.55,15.86s-43.64.4-45.83-4S514,397.89,514,397.89c-.31,1.47-.52,4.11-.52,4.11s-6.89,8.32-9.29,7.24a5,5,0,0,1-1.93-2.38l-.21,2.09c.15,3,2.87,5.58,2.87,5.58l9.19-11.45c5.74,27.12,28.71,20.46,44.26,17.91s31.53-9.4,35.81-11.75,6.26-2.94,6.37-3.72A24.88,24.88,0,0,0,598.6,395.34Z" transform="translate(-273 -246)"/></g><path class="cls-2" d="M566.38,337.09C555,317,540.21,319.6,540.21,319.6c-3.76-3.79-18.37-5-33.13,4s-20.46,20.5-22.55,29.9-.13,12.66-1.67,23.75-5.56,11.23-5.56,11.23c4.17,5.88,8.21,3.92,8.21,3.92,1.39-1.83,1.95-5.36,1.95-5.36a10.94,10.94,0,0,1,0,5.36c7.24,2,10.44-2,15.17.65,1.34.74,6.05.32,11.92.28,6.85-2.21,14.38-3.68,21.56-2.75a24.94,24.94,0,0,1,10.86,4.1,43.85,43.85,0,0,1,4.49,3.25c1.84-1.61,4.76-8,4.76-8a42.54,42.54,0,0,1-1.81,7.58c9.47-.66,17.4-6.92,17.4-6.92C574.73,380.55,577.8,357.19,566.38,337.09Z" transform="translate(-273 -246)"/><path class="cls-4" d="M562.33,369.23c-.12-2.75-.25-5.46-.21-8.21a20.7,20.7,0,0,0-.66-6.56c-2.24,2.1-4.62,3.5-8,3.43a17.89,17.89,0,0,1-9.05-2.78c-5-3.1-9.57-8.17-9.93-14a27.23,27.23,0,0,1,0-3.9,13,13,0,0,0-4.87,1.08,33.07,33.07,0,0,0-3.34,1.75l0,0a45.27,45.27,0,0,1-11.87,9.54c-5.24,2.74-11.51,5.44-17.63,5.44-2.29,0-4.84-.41-6.52-2a7,7,0,0,1-1.54-2.21,15.94,15.94,0,0,0,2,6.8c2,3.54,3.69,6.67,4,10.73a65.69,65.69,0,0,1-.69,14.95c-.23,1.43.76,8.64-2.44,9-1.62.19-3.27.17-3.19-.55a37.48,37.48,0,0,0-.1-6.15,51,51,0,0,0-.41-7.92c-.38,3.5-.9,7.18-2.73,10.15-.94,1.53-2.23,2.76-4.26,2.52a6.68,6.68,0,0,1-3.54-1.86c4.16,5.84,8.19,3.89,8.19,3.89,1.39-1.83,1.95-5.36,1.95-5.36a10.94,10.94,0,0,1,0,5.36c7.24,2,10.44-2,15.17.65,1.34.74,6.05.32,11.92.28,6.85-2.21,14.38-3.68,21.56-2.75a24.94,24.94,0,0,1,10.86,4.1,43.85,43.85,0,0,1,4.49,3.25c1.84-1.61,4.76-8,4.76-8a42.54,42.54,0,0,1-1.81,7.58c.74,0,1.46-.15,2.18-.26.46-1.09.88-2.17,1.26-3.23a88.37,88.37,0,0,0,3.25-11.57A52.17,52.17,0,0,0,562.33,369.23Z" transform="translate(-273 -246)"/><path class="cls-4" d="M571.4,348.73c5.7,24.52-2.19,41.61-2.95,44.1a34.92,34.92,0,0,0,3.36-2.22C574.18,382.46,576.64,365.55,571.4,348.73Z" transform="translate(-273 -246)"/><path class="cls-2" d="M516.41,391.27s-1.26,8.61,1,13.18,2,5.61,3.91,3.26,3.19-3.78,4-3.78,2.5,1.69,4.31,2.6,2.09,3.27,3.07-.13,1.94-13-.56-19.19S516.41,391.27,516.41,391.27Z" transform="translate(-273 -246)"/><path class="cls-2" d="M518.22,392.17s1.25,11.36,6.26,11.62,4.87-14.35,4.87-14.35Z" transform="translate(-273 -246)"/><path class="cls-4" d="M535.7,396.48a28,28,0,0,0,11.37-8.79,28.69,28.69,0,0,0,3.5-6.08c-5.47.81-11.61,1.66-17.42,2.37-16,2-18.37,9.11-18.37,9.11a4.94,4.94,0,0,0-2.31.29C517.91,399.2,528.24,399.64,535.7,396.48Z" transform="translate(-273 -246)"/><path class="cls-2" d="M502.07,409.53s0-.13.05-.37l0-.21,0,.21c.2-2,1.21-11.69,1.21-14.37,0,0,3.2-2.62,3.47-5.62s-13.08-9.92-13.08-9.92.28-3.52-1.81-3-2,5.35-1.53,8.62.84,3.52,3.34,5.08a50.91,50.91,0,0,1,4.73,3.4s-4.31,17.88-3.05,22.71,3.89,4.7,6.53,1.31c.59-.76,1.53-1.92,2.62-3.28a9.64,9.64,0,0,1-2.41-4.68Z" transform="translate(-273 -246)"/><path class="cls-2" d="M502.49,405.46a43,43,0,0,1-1.21,6.06h0a10.3,10.3,0,0,0,1.92,4.25l1.35-1.69a9.64,9.64,0,0,1-2.41-4.68l-.07.12s0-.13.05-.37C502.18,408.53,502.32,407.15,502.49,405.46Z" transform="translate(-273 -246)"/><path class="cls-2" d="M492.71,384.88c2.53.72,5.15,2.63,5.46,4.78a3.24,3.24,0,0,1,2.92.7,3,3,0,0,1,.43.44,4.3,4.3,0,0,1,2.94.88,1.91,1.91,0,0,1,.67,1.21,7.42,7.42,0,0,0,1.67-3.72c.28-3-13.08-9.92-13.08-9.92s.28-3.52-1.81-3a1.73,1.73,0,0,0-1,.85,1.91,1.91,0,0,1,1,1.07A16.91,16.91,0,0,1,492.71,384.88Z" transform="translate(-273 -246)"/><path class="cls-2" d="M503.33,332.65c-14.05,7.69-14.9,17.1-11,24,5.12,9.09-3.76,18,1,24.81s15.88,14.42,33.41,13.83c7.8-.26,24.22-7.05,25.61-20.89,0,0,9.33,10.71,9.88-3,.29-6.79-5.42-8.35-9.18-10.83C553,360.59,548.84,307.72,503.33,332.65Z" transform="translate(-273 -246)"/><path class="cls-2" d="M520.74,387.7a7.81,7.81,0,0,1-12.14-2.94,0,0,0,0,0-.07,0c0,5.08,9.85,7.71,12.31,3C520.87,387.72,520.79,387.65,520.74,387.7Z" transform="translate(-273 -246)"/><path class="cls-2" d="M514.15,381.58a2.45,2.45,0,0,1-2.75-1.47,1.79,1.79,0,0,1-.17-1.39c.36-.91,1.65-.44,2.29-.17a.11.11,0,0,0,.16-.14,1.77,1.77,0,0,0-2.48-.57,1.54,1.54,0,0,0-.59,1.86c.3,1.13,2.27,3,3.57,2C514.22,381.65,514.21,381.57,514.15,381.58Z" transform="translate(-273 -246)"/><path class="cls-2" d="M501.54,362.72c-.65-.33-1.88-.24-2.08.56a.27.27,0,0,0,.16.28c.44.2,1,0,1.42.17a6.64,6.64,0,0,1,1.46.85c.11.07.27,0,.29-.09C502.9,363.71,502.2,363.06,501.54,362.72Z" transform="translate(-273 -246)"/><path class="cls-2" d="M528.08,363.28a2.22,2.22,0,0,0-2.29-.9c-.68.13-1.94.75-1.59,1.58a.32.32,0,0,0,.31.19c.48,0,.92-.46,1.37-.62a3.66,3.66,0,0,1,2,0C528,363.58,528.19,363.43,528.08,363.28Z" transform="translate(-273 -246)"/><path class="cls-2" d="M524.89,373c.08,2.25,1,4,2.05,4s1.82-1.88,1.73-4.12-1-4-2-4S524.8,370.75,524.89,373Z" transform="translate(-273 -246)"/><path class="cls-2" d="M527,371.21c.09.68.42,1.2.73,1.16s.5-.61.42-1.29-.42-1.19-.73-1.15S526.9,370.54,527,371.21Z" transform="translate(-273 -246)"/><path class="cls-2" d="M500,372c.07,2.09.87,3.77,1.8,3.74s1.63-1.75,1.57-3.85-.87-3.77-1.8-3.75S500,369.9,500,372Z" transform="translate(-273 -246)"/><path class="cls-2" d="M501.92,370.35c.07.63.36,1.11.63,1.08s.46-.57.38-1.2-.36-1.12-.64-1.09S501.85,369.71,501.92,370.35Z" transform="translate(-273 -246)"/><path class="cls-2" d="M525.11,379.7c.14,1.32,3,2.14,6.4,1.81s6-1.67,5.89-3-3-2.14-6.41-1.81S525,378.37,525.11,379.7Z" transform="translate(-273 -246)"/><path class="cls-2" d="M493.38,376.67c-.31,1,1.37,2.27,3.74,2.94s4.56.45,4.86-.51-1.36-2.27-3.74-2.93S493.69,375.72,493.38,376.67Z" transform="translate(-273 -246)"/><path class="cls-2" d="M557.2,368.2c-1.14-.76-2.22-.12-2.84.9a4.63,4.63,0,0,0-.16,3.65c0,.07.16.05.14,0-.36-1.84.43-4.39,2.79-4.32A.11.11,0,0,0,557.2,368.2Z" transform="translate(-273 -246)"/><path class="cls-2" d="M528.66,346.1s-21.16,20.23-39.11,8.09c0,0-6.41-.39,1-12.4S521.14,317.51,538,325s37.17,34.46,28.12,49.21-13.78,3.26-13.78-.26c0,0,1.25,4.18,4.88-.39s2.78-9-1-9.66a3.25,3.25,0,0,0-4,3l-.42-2.87S539.65,360.71,528.66,346.1Z" transform="translate(-273 -246)"/><path class="cls-4" d="M561.46,354.46c-2.24,2.1-4.62,3.5-8,3.43a17.89,17.89,0,0,1-9.05-2.78c-5-3.1-9.57-8.17-9.93-14a23.67,23.67,0,0,1,0-2.56A54,54,0,0,1,516,352.32c-5.47,2.46-12,5.56-18.2,4.23a16.89,16.89,0,0,1-5.67-2.3,6.18,6.18,0,0,1-1.88-1.19,7,7,0,0,1-1.54-2.21,18.36,18.36,0,0,0,.54,3.29l.28.05c17.95,12.14,39.11-8.09,39.11-8.09,11,14.61,23.1,17.88,23.1,17.88l.42,2.87a3.25,3.25,0,0,1,4-3c3.76.65,4.59,5.09,1,9.66s-4.88.39-4.88.39c0,2.88,3.18,11.09,9.28,5.9C563.6,365.29,562.13,356.59,561.46,354.46Z" transform="translate(-273 -246)"/><path class="cls-2" d="M570.28,420c-.51-3.43-6.29-9.23-9.37-12.1a50.94,50.94,0,0,1-5.83,2.76,90.19,90.19,0,0,1,6.36,6.92c1.25,1.57,1.15,1.38-.94,1.77s-20.77,2.74-20.77,2.74c-1.78-1.18-7.83-2.06-13.26-.69s-3.24,3.72-1.15,2.84,6.58-1.07,6.58-1.07-3.45.88-5.12,1.46c-6.71,2.36-7.62,8.32-3.76,5.49a19.14,19.14,0,0,1,7.31-3.43c-11,4.6-6.58,7.54-5.22,6.36s7.2-4.5,7.2-4.5c-7.51,4.9-4.28,7-3.13,5.78s5.22-4.51,5.22-4.51c-4.39,5.58-1.57,6.27-.31,4.51s3.76-5.19,3.76-5.19a4.51,4.51,0,0,0,2.22-1.57c10.72.13,20.47-2.35,23.94-3S571,424.68,570.28,420Z" transform="translate(-273 -246)"/><path class="cls-2" d="M562.35,409.25c-.52-.51-1-1-1.44-1.37a50.94,50.94,0,0,1-5.83,2.76c.71.67,1.49,1.46,2.24,2.26C559,411.69,560.62,410.41,562.35,409.25Z" transform="translate(-273 -246)"/><g class="cls-3"><path class="cls-2" d="M561.3,407a1,1,0,0,0-.19-.42,3.91,3.91,0,0,0-.55-.59c-.76-.69-1.52-1.28-2.18-2-1.39-1.4-2.82-2.72-4.21-4s-2.82-2.41-4.18-3.49a42,42,0,0,0-4-2.83,10.74,10.74,0,0,0-4-1.67,4,4,0,0,0-3.2.79,4.28,4.28,0,0,0-1.07,1.73l-.25.66.08,0,.3-.64a4.17,4.17,0,0,1,1.15-1.55,3.74,3.74,0,0,1,2.93-.52,11.11,11.11,0,0,1,3.61,1.74c1.24.83,2.54,1.81,3.88,2.87s2.71,2.25,4.13,3.47,2.86,2.52,4.28,3.86c.7.7,1.54,1.32,2.29,1.94.36.29.74.69.61.88s-.74.48-1.15.72c-1.79,1-3.59,1.88-5.38,2.78s-3.58,1.75-5.32,2.54a7.51,7.51,0,0,1-1.23.51c-.21,0-.26,0-.34-.1a2,2,0,0,1-.2-.54,24.38,24.38,0,0,0-.8-2.46c-.32-.78-.64-1.54-1-2.26s-.68-1.4-1-2.06c-.66-1.32-1.27-2.52-1.86-3.56s-1.09-2-1.53-2.7c-.88-1.48-1.41-2.31-1.41-2.31l-.07,0,4.25,8.8c.62,1.32,1.27,2.77,1.93,4.29.28.78.62,1.54.88,2.4a2.56,2.56,0,0,0,.32.68.81.81,0,0,0,.43.29,1,1,0,0,0,.49,0,7,7,0,0,0,1.35-.63c1.67-.91,3.43-1.8,5.22-2.7s3.63-1.76,5.49-2.62l.69-.32.17-.08.19-.11a1.14,1.14,0,0,0,.34-.35A.64.64,0,0,0,561.3,407Z" transform="translate(-273 -246)"/></g><path class="cls-2" d="M449.1,326s9.81,17.42,10.65,19.32,7.39,10.76,7.39,10.76l-27.48,12.35,1.81-23.53s2.06-4.33,4-9.61S449.1,326,449.1,326Z" transform="translate(-273 -246)"/><path class="cls-2" d="M447,326.36s12.95,20.05,17.07,25.33,3,4.43,3,4.43L443.9,390.63,433,364a38.89,38.89,0,0,1,4-15.84C441,340.4,447,326.36,447,326.36Z" transform="translate(-273 -246)"/><path class="cls-4" d="M466.74,355.35a53.24,53.24,0,0,0-9.09-2.92c-4.37-1.08-8.92-2.27-13.14-3.73-2.85-1-4.84-2.5-4.89-5.31a5.72,5.72,0,0,1,0-.59c-.92,1.95-1.83,3.81-2.65,5.4A38.89,38.89,0,0,0,433,364l10.9,26.59,23.24-34.51s.42.33-.26-.7Z" transform="translate(-273 -246)"/><path class="cls-2" d="M422.35,345.46s-2.55,7.71-4,13.72l48.79-3.06s-12.95-2.32-18.77-3.91-13.8-3.58-17.79-4.32A50.88,50.88,0,0,1,422.35,345.46Z" transform="translate(-273 -246)"/><path class="cls-2" d="M381.83,401.71s11.94,4.93,15.82,8.59,1.93,5.77-6.79,15.48-12.09,12-12.09,12l-5.66-1.9s16.23-17.94,17.19-20.55-12.27-7-13.47-7.59Z" transform="translate(-273 -246)"/><path class="cls-2" d="M387.62,404.32c-3.18-1.53-5.79-2.61-5.79-2.61l-5,6c.58.27,3.93,1.43,7.15,2.85C385.21,408.49,386.34,406.35,387.62,404.32Z" transform="translate(-273 -246)"/><path class="cls-2" d="M335.1,425.78s-1.77,11.18-1.61,12.38,23.56-5.91,27.6-7.39,5.41-2.18,6.86-1.54,7.34,8.79,3.71,7.74-5.57-2.39-7.75-1.41-27,10.14-35.83,10.76c-3,.22-3.55-2-3.63-4.78s1.05-17.45,1.29-17.66S335.1,425.78,335.1,425.78Z" transform="translate(-273 -246)"/><path class="cls-2" d="M334.25,431.35c.42-2.88.85-5.57.85-5.57s-9.12-2.11-9.36-1.9a59.51,59.51,0,0,0-.64,6.21A51.65,51.65,0,0,1,334.25,431.35Z" transform="translate(-273 -246)"/><path class="cls-2" d="M373.36,349.51s28.32,10.56,46.72,8.58c0,0-1.45,7-1.36,7.18s-20.91,1.83-49.64-10.91Z" transform="translate(-273 -246)"/><path class="cls-2" d="M322.35,394.54a35.37,35.37,0,0,0,.48,7.81s-7.51,16.25-8.23,23.22a34.43,34.43,0,0,0,8.48.84c4.11-.21,9.2,1.06,12.82,2.33a16.73,16.73,0,0,0,7.76.41l3.87-12.24s6.05-1.69,8.71-2.74c0,0,12.59,1.9,15.25,3.37a45.77,45.77,0,0,0,13.57-15.61s-5.32-2.75-24.46-4.44Z" transform="translate(-273 -246)"/><path class="cls-4" d="M333.15,403.05a.38.38,0,0,1,.14-.14.39.39,0,0,1,.56-.34c8.41,3.07,22.25,2,28-5l-1.25-.12-38.25-2.95a35.37,35.37,0,0,0,.48,7.81s-7.51,16.25-8.23,23.22a34.43,34.43,0,0,0,8.48.84c.49,0,1,0,1.51,0A64.35,64.35,0,0,1,333.15,403.05Z" transform="translate(-273 -246)"/><path class="cls-4" d="M373.91,410.3a28,28,0,0,0-7.17-1.41c-1.75-.06-3.48-.09-5.22-.29a.41.41,0,0,1-.28-.62,21.12,21.12,0,0,0,1.62-3.61c-4.31,4.17-9.6,6.77-14.93,7.06-.8,4.5-2.17,8-3.25,11.72a26.94,26.94,0,0,1-2.44,6.2,13.42,13.42,0,0,0,1.42-.2l3.87-12.24s6.05-1.69,8.71-2.74c0,0,12.59,1.9,15.25,3.37a44.18,44.18,0,0,0,6.61-5.83C376.72,411.22,375.32,410.73,373.91,410.3Z" transform="translate(-273 -246)"/><path class="cls-4" d="M320.9,406.73c3,.88,6.34.58,8.28-2a7.53,7.53,0,0,0,1-6.33,28.92,28.92,0,0,0-1-3.35l-6.87-.53a35.37,35.37,0,0,0,.48,7.81S322,404.12,320.9,406.73Z" transform="translate(-273 -246)"/><path class="cls-2" d="M373.92,435s-6.78,5.8-7.75,8.13,6.9,9.6,12,13.08,12.83,7.71,14,2.85-11.5-22.58-11.5-22.58S375.74,438.87,373.92,435Z" transform="translate(-273 -246)"/><path class="cls-5" d="M376.61,447.27c2.27,3.74,5.29,6.08,10.35,5.77a22.62,22.62,0,0,0,3.55-.49c-3.24-6.95-9.81-16.11-9.81-16.11s-5,2.43-6.78-1.48c0,0-2,1.68-3.92,3.6C373.44,439.81,375.09,444.79,376.61,447.27Z" transform="translate(-273 -246)"/><g class="cls-6"><path class="cls-2" d="M369.69,445c-2.13-1.46-3.15-1.69-3.6-1.39.13,2.74,7.31,9.32,12.07,12.57s11.51,7,13.59,3.9C390.84,455.71,374.85,448.56,369.69,445Z" transform="translate(-273 -246)"/></g><path class="cls-2" d="M364.23,429.57s2.79-.94,4.85,2.54-.6,4-.6,4,5.2,3.06,7.38,6.55,10.41,8.75,13.56,6.85,2.54-7.92-3.64-13.82-15-13.52-19.85-9.29A5.62,5.62,0,0,0,364.23,429.57Z" transform="translate(-273 -246)"/><path class="cls-4" d="M385.78,435.7c-5.08-4.87-12-10.88-16.95-10.49,5.57.76,11.29,6.83,14.08,10,2.91,3.35,6.11,7.7,6.22,12.06a8.23,8.23,0,0,1-.3,2.48,2.38,2.38,0,0,0,.59-.25C392.56,447.62,392,441.6,385.78,435.7Z" transform="translate(-273 -246)"/><path class="cls-2" d="M342.93,341.77c6.77.21,16.22,2.53,31.23,7.39,0,0-3.63,8.23-7.75,12.66l-8.47-2.32s4.36,25.12,4.6,37.57c0,0-2.42,3.8-16.46,4.22s-27.12-5.7-27.12-5.7,2.18-46.64,12.59-53.19Z" transform="translate(-273 -246)"/><path class="cls-4" d="M360.35,351.78c-1.53-.54-3.26-1-4.37-2.19-.64-.66-1.25-1.35-1.85-2,.48,1.49.81,3,1.33,4.45a54.77,54.77,0,0,1,3.17,11.88l0,0c-.43-2.71-.73-4.41-.73-4.41l8.47,2.32a36,36,0,0,0,4.36-6.12c-.6-.35-1.22-.69-1.85-1C366.18,353.42,363.22,352.8,360.35,351.78Z" transform="translate(-273 -246)"/><path class="cls-4" d="M330.11,371c.07-.44.82-.37.94,0a13.32,13.32,0,0,0,5.7,7.12,16,16,0,0,1,4.95-7.2,27.17,27.17,0,0,1-8.32-8.95c-1.82-3.11-3.73-6.92-3.57-10.49.26-5.62,6.4-5.94,11.51-5.41.46-1.41.68-2.91,1.22-4.28l-11,.61C321.14,349,319,395.59,319,395.59a64,64,0,0,0,8.76,3.14A156.3,156.3,0,0,1,330.11,371Z" transform="translate(-273 -246)"/><path class="cls-2" d="M338.53,346.93a9.6,9.6,0,0,0,2.67,5.71,5.08,5.08,0,0,0,5.19,1.23c3.5-1.39,3.43-4.86,3.5-8,0-1,0-2.08,0-3.12a42.76,42.76,0,0,0-7.25-1l-4.3.26A42.19,42.19,0,0,0,338.53,346.93Z" transform="translate(-273 -246)"/><path class="cls-2" d="M333.8,374.85a16.11,16.11,0,0,0,3.23,3.48,94.11,94.11,0,0,1,6.74-8.68,39.75,39.75,0,0,1,7.44-7.27c-1.19-.93-2.42-1.82-3.65-2.71A83.57,83.57,0,0,0,333.8,374.85Z" transform="translate(-273 -246)"/><path class="cls-2" d="M369.86,347.79c-1.79,4.55-4,9.17-7.31,13l3.86,1.06c4.12-4.43,7.75-12.66,7.75-12.66C372.67,348.67,371.25,348.22,369.86,347.79Z" transform="translate(-273 -246)"/><path class="cls-2" d="M340.67,342.05s.16,9.71,4.68,8.86,1.78-10.41,1.78-10.41Z" transform="translate(-273 -246)"/><path class="cls-4" d="M359.36,344.71c-7-1.86-12.22-2.81-16.43-2.94l-11.38.63a10.18,10.18,0,0,0-3,3.26C337.89,350.32,350,349.42,359.36,344.71Z" transform="translate(-273 -246)"/><path class="cls-2" d="M337.84,260.5c21.52-1.6,35.35,2.72,41.9,21.53,2.41,7,0,13.09.23,21.32s18.4,16.67-9,32.3-47.94,8.23-56.66,0c0,0-12.27,11.61-18.89-5.42S297.25,263.53,337.84,260.5Z" transform="translate(-273 -246)"/><path class="cls-2" d="M383.45,273.8S371,239.6,324.69,247.07c-14.85,2.39-32.45,11.25-37.29,24.62,0,0-10,.56-13.88,25.19s14.85,41.09,24.53,45.73c6.46,3.1,22.82,5.56,33.12,1.3,0,0-10.88-1.72-16.49-9.17,0,0-7.89,6.36-11-3.95-1-3.23,1.25-8.67,6.61-7.74a4.7,4.7,0,0,1,3.71,4.09,39.64,39.64,0,0,0,4.69,5.2s-1.62-6.47-2.91-13.23a52.19,52.19,0,0,1-.65-13.22s3.91-5.73,12.46-12.05a29.19,29.19,0,0,0-2.46-5.44c1.64,1.22,3.3,2.44,4.81,3.77a81.25,81.25,0,0,1,15.54-8.24q3.6-1.43,7-2.61a24.1,24.1,0,0,0-1.86-4.73,20.47,20.47,0,0,1,4.24,3.93,167.61,167.61,0,0,1,19.79-5.29,13.09,13.09,0,0,0-1.48-4.75,11.66,11.66,0,0,1,3.26,4.41C380.86,274.07,383.45,273.8,383.45,273.8Z" transform="translate(-273 -246)"/><path class="cls-4" d="M285.5,327.55c-6.79-7.9-11.26-18-11.19-27.95.06-9.2,3.56-17.82,8.77-25.68-3.2,2.78-7.36,9-9.56,23-3.87,24.63,14.85,41.09,24.53,45.73,6.46,3.1,22.82,5.56,33.12,1.3a32,32,0,0,1-6.53-2C310,343.83,294.62,338.15,285.5,327.55Z" transform="translate(-273 -246)"/><path class="cls-4" d="M366.14,276.63c-3.44.74-6.79,1.6-10.13,2.65a.42.42,0,0,1-.46-.11.49.49,0,0,1-.33-.2c-1.81-2.55-4.62-4.3-7.61-5.73a36.94,36.94,0,0,1,3.53,7.2c.11.33-.2.53-.5.52h0c-6.9,2.32-14.54,4.74-19.8,9.46a.52.52,0,0,1-.58.07c-2.92-1.88-5.39-4.38-8.56-5.93a88.9,88.9,0,0,0,3.78,10c.09.18-.06.37-.23.47a42.79,42.79,0,0,0-11.88,11.92,46.79,46.79,0,0,0,1.26,10.53c1,4.28,1.73,8.91,3.64,13-.57-2.4-1.59-6.8-2.46-11.36a52.19,52.19,0,0,1-.65-13.22s3.91-5.73,12.46-12.05a29.19,29.19,0,0,0-2.46-5.44c1.64,1.22,3.3,2.44,4.81,3.77a81.25,81.25,0,0,1,15.54-8.24q3.6-1.43,7-2.61a24.1,24.1,0,0,0-1.86-4.73,20.47,20.47,0,0,1,4.24,3.93,167.68,167.68,0,0,1,19.36-5.2C371.53,275.14,368.69,276.09,366.14,276.63Z" transform="translate(-273 -246)"/><path class="cls-2" d="M368.12,289.41s2.3-.08,2.66.78-1.58.91-2.43.52S368.12,289.41,368.12,289.41Z" transform="translate(-273 -246)"/><path class="cls-2" d="M340.62,297.06l.18-.26c.33-.42,1-1.18,1.42-.6.52.78-.93,3.1-1.76,3.5S339.76,298,340.62,297.06Z" transform="translate(-273 -246)"/><path class="cls-2" d="M343.41,312.41c.1,2.42,1.17,4.35,2.39,4.3s2.11-2,2-4.44-1.17-4.35-2.39-4.31S343.31,310,343.41,312.41Z" transform="translate(-273 -246)"/><path class="cls-2" d="M345.85,310.5c.1.72.48,1.28.84,1.24s.58-.66.49-1.39-.49-1.28-.85-1.24S345.75,309.77,345.85,310.5Z" transform="translate(-273 -246)"/><path class="cls-2" d="M368.17,305.94c.07,2.26,1,4.07,2.1,4s1.89-1.88,1.82-4.15-1-4.07-2.1-4S368.09,303.68,368.17,305.94Z" transform="translate(-273 -246)"/><path class="cls-2" d="M370.35,304.16c.09.69.42,1.21.74,1.18s.52-.62.44-1.3-.42-1.21-.74-1.17S370.27,303.48,370.35,304.16Z" transform="translate(-273 -246)"/><path class="cls-2" d="M332,322.37c.17,1.43,3.5,2.31,7.45,1.95s7-1.8,6.84-3.22-3.51-2.31-7.45-2S331.86,320.94,332,322.37Z" transform="translate(-273 -246)"/><path class="cls-2" d="M371.73,313.59c.66.9,3.16.54,5.59-.82s3.86-3.18,3.19-4.09-3.17-.54-5.6.82S371.06,312.69,371.73,313.59Z" transform="translate(-273 -246)"/><path class="cls-2" d="M362.88,317.55c-.09,0-.16.1-.08.15,1.57.92,3.93,2.29,3.76,4.18-.09,1-1.29,1.37-2.22,1.46-1.23.11-2.18-.51-3.3-.81-.16,0-.31.16-.2.27,1.79,1.74,5.15,2.28,6.57-.12S365.09,318,362.88,317.55Z" transform="translate(-273 -246)"/><path class="cls-2" d="M366.87,331.34c-3.77,4.32-9.13,6.32-15.36,5.86-5.62-.42-9.36-3.52-12.43-7.33a2.12,2.12,0,0,0,1.65-1.83c0-.23-.33-.23-.43-.07-1,1.47-3.34,1.63-5.1,1.32-.1,0-.18.11-.09.17a4.73,4.73,0,0,0,3.37.57c2.77,4.61,7.77,7.4,13.67,7.92,5.3.46,13.21-1.47,14.79-6.59C367,331.33,366.89,331.31,366.87,331.34Z" transform="translate(-273 -246)"/><path class="cls-2" d="M309.91,327.66a2.83,2.83,0,0,0-3.7,2.28c0,.06.09.11.13.05,1-1.36,2.15-1.95,3.89-1.12a10.28,10.28,0,0,1,3.16,2.72.19.19,0,0,0,.34-.15A6,6,0,0,0,309.91,327.66Z" transform="translate(-273 -246)"/><path class="cls-2" d="M467.14,356.12s-14.29-2-25.55-3.37-19.72-3.49-21.79-5.6c0,0-7.14,16.36-9.68,22.9s-6.54,19-9.08,24.49-7,16.78-6.66,17,8.59,1.79,21.18,2.43,21.92,1.37,21.92,1.37,5.69-10.24,12.35-22.9S468.23,358.34,467.14,356.12Z" transform="translate(-273 -246)"/><path class="cls-2" d="M467.14,356.12l-4.32-.6a39.14,39.14,0,0,1-3.16,6.56c-2,3.46-3.59,7.07-5.27,10.64-3.13,6.67-6,13.45-9.4,20-3.26,6.29-6.37,12.65-9.54,19-.56,1.12-1.13,2.24-1.73,3.34l3.76.28s5.69-10.24,12.35-22.9S468.23,358.34,467.14,356.12Z" transform="translate(-273 -246)"/><path class="cls-2" d="M414.75,387.5c2.27-4.92-3.71-8.44-9.68-9.57s-9.52,4.23-9.52,4.23c-21.39-.36-40-14-45.76-18.7a34.07,34.07,0,0,0-3.86,3.73c20.78,20.83,47.36,21.58,47.36,21.58s.16,1.83,3.95,3.52,5.41-.56,5.41-.56c1.78-.64,4-.71,6.78,1.12s3.23-.56,3.23-.56a1.84,1.84,0,0,0,1-1.83A2.88,2.88,0,0,0,414.75,387.5Z" transform="translate(-273 -246)"/><path class="cls-2" d="M410.51,389.67a10.93,10.93,0,0,0-5.59-1.68c-.09,0-.37,0-.27.06a14.87,14.87,0,0,1,4.58,1.51c1.31.65,3.37,1.48,3.14,3.29,0,.07.23-.25.25-.49C412.73,391,411.88,390.4,410.51,389.67Z" transform="translate(-273 -246)"/><path class="cls-2" d="M406.58,384.45c-.05,0-.06.05,0,.06,3.34.85,7.48,3.89,6.67,7.27,0,.08.17-.14.19-.21C414.78,388,410.41,384.9,406.58,384.45Z" transform="translate(-273 -246)"/><path class="cls-2" d="M412.81,384.34a10.59,10.59,0,0,0-5.46-2.93s-.06,0,0,0c3.75,1.3,6.93,4.14,7.16,7.79,0,.17.19-.07.23-.23C415.16,387.24,414,385.71,412.81,384.34Z" transform="translate(-273 -246)"/><path class="cls-2" d="M348.08,359.51c-.53-.46-1.09-.9-1.61-1.38l-1.57-1.41-1.52-1.47c-.52-.48-.95-1-1.43-1.52l-.71-.77a10,10,0,0,1-.66-.8l-1.28-1.64,1.17,1.7c.21.28.39.57.62.83l.67.8c.46.53.88,1.08,1.38,1.58l1.45,1.53c.5.5,1,1,1.52,1.47s1.06,1,1.59,1.43c1,.87,2,1.7,3,2.52l-1.9,1.5-2,1.89c-.66.62-1.22,1.31-1.84,2s-1.21,1.32-1.78,2-1.16,1.35-1.72,2l-1.67,2.08c-1,1.25-1.93,2.5-2.87,3.77a18,18,0,0,1-1.29-1.33c-.53-.6-1-1.23-1.51-1.87s-.93-1.29-1.36-2-.83-1.34-1.24-2-.76-1.37-1.1-2.08-.68-1.42-1-2.14-.58-1.44-.87-2.17-.53-1.46-.74-2.21-.43-1.48-.58-2.24-.31-1.5-.43-2.26-.15-1.53-.24-2.3-.06-1.53,0-2.29l.06-1.15.17-1.13a10.78,10.78,0,0,1,.28-1.12,7,7,0,0,1,.45-1.06,3.89,3.89,0,0,1,1.67-1.69,4.17,4.17,0,0,1,2.55-.31,3.9,3.9,0,0,0-4.45,1.89,9.13,9.13,0,0,0-.53,1.09c-.11.38-.25.76-.34,1.14l-.22,1.16-.12,1.16c-.06.78-.06,1.55-.05,2.34s.06,1.54.18,2.32a22.41,22.41,0,0,0,.37,2.32c.13.77.34,1.53.53,2.29s.45,1.51.68,2.26.53,1.49.86,2.22.62,1.45,1,2.17.73,1.42,1.1,2.13.79,1.4,1.25,2.07.89,1.35,1.36,2a24.57,24.57,0,0,0,3.3,3.74l.42.38.33-.46c1-1.42,2.08-2.82,3.16-4.22l1.64-2.08c.55-.69,1.13-1.37,1.69-2.05s1.15-1.35,1.74-2,1.16-1.35,1.81-2l1.88-1.9,2.06-1.73.29-.24-.28-.21C350.29,361.31,349.16,360.43,348.08,359.51Z" transform="translate(-273 -246)"/><path class="cls-2" d="M358.48,362.9c-.05-.49-.1-1.2-.22-2a22.17,22.17,0,0,0-.49-2.85c-.12-.52-.22-1.06-.36-1.6s-.3-1.09-.45-1.63-.34-1.09-.5-1.62-.4-1.05-.59-1.55a28.52,28.52,0,0,0-1.18-2.7c-.39-.77-.76-1.4-1-1.84s-.44-.67-.44-.67l.27.74c.2.46.39,1.14.68,1.94.14.4.28.83.43,1.3s.3.95.46,1.45c.33,1,.66,2.08,1,3.16.16.54.35,1.07.48,1.61s.3,1.05.44,1.57l.43,1.46c.12.46.24.9.35,1.31.22.82.44,1.49.58,2s.24.75.24.75S358.53,363.39,358.48,362.9Z" transform="translate(-273 -246)"/></g></g></svg>