<?xml version="1.0" encoding="utf-8"?>
<!-- Generator: Adobe Illustrator 23.0.5, SVG Export Plug-In . SVG Version: 6.00 Build 0)  -->
<svg version="1.1" id="Layer_1" xmlns="http://www.w3.org/2000/svg" xmlns:xlink="http://www.w3.org/1999/xlink" x="0px" y="0px"
	 viewBox="0 0 512 512" style="enable-background:new 0 0 512 512;" xml:space="preserve">
<style type="text/css">
	.st0{fill:none;stroke:#FFFFFF;stroke-width:32;stroke-miterlimit:10;}
</style>
<title>ionicons-v5-g</title>
<path class="st0" d="M451,374c-15.9-16-54.3-39.4-73-48.8c-24.3-12.2-26.3-13.2-45.4,1c-12.7,9.5-21.2,17.9-36.1,14.8
	s-47.3-21.1-75.7-49.4s-47.3-61.6-50.5-76.5s5.4-23.2,14.8-36c13.2-18,12.2-21,0.9-45.3c-8.8-18.9-32.8-57-48.9-72.8
	c-17.2-17-17.2-14-28.3-9.4c-9,3.8-17.7,8.4-25.8,13.8C67,76,58.1,84.8,51.9,98.1s-9,44.4,23.1,102.6s54.6,88,101.1,134.5
	s82.4,71.4,134.7,100.8c64.8,36.3,89.6,29.2,102.9,23s22.2-15,32.8-31c5.4-8.2,10-16.8,13.8-25.8C465,391.2,468,391.2,451,374z"/>
</svg>
