<?xml version="1.0" encoding="utf-8"?>
<!-- Generator: Adobe Illustrator 23.0.5, SVG Export Plug-In . SVG Version: 6.00 Build 0)  -->
<svg version="1.1" id="Layer_1" xmlns="http://www.w3.org/2000/svg" xmlns:xlink="http://www.w3.org/1999/xlink" x="0px" y="0px"
	 viewBox="0 0 512 512" style="enable-background:new 0 0 512 512;" xml:space="preserve">
<style type="text/css">
	.st0{fill:none;stroke:#FFFFFF;stroke-width:32;stroke-miterlimit:10;}
	.st1{fill:#FFFFFF;}
</style>
<title>ionicons-v5-m</title>
<path class="st0" d="M430.1,347.9c-6.6-6.1-16.3-7.6-24.6-9c-11.5-1.9-15.9-4-22.6-10c-14.3-12.7-14.3-31.1,0-43.8l30.3-26.9
	c46.4-41,46.4-108.2,0-149.2C379,78.9,333.1,64,285.4,64c-55.7,0-113.9,20.3-158.8,60.1c-83.5,73.8-83.5,194.7,0,268.5
	c41.5,36.7,97.5,55,152.9,55.4h1.7c55.4,0,110-17.9,148.8-52.4C444.4,382.9,442,359,430.1,347.9z"/>
<circle class="st1" cx="144" cy="208" r="32"/>
<circle class="st1" cx="152" cy="311" r="32"/>
<circle class="st1" cx="224" cy="144" r="32"/>
<circle class="st1" cx="256" cy="367" r="48"/>
<circle class="st1" cx="328" cy="144" r="32"/>
</svg>
